<mxfile host="Electron" agent="Mozilla/5.0 (Macintosh; Intel Mac OS X 10_15_7) AppleWebKit/537.36 (KHTML, like Gecko) draw.io/26.0.9 Chrome/128.0.6613.186 Electron/32.2.5 Safari/537.36" version="26.0.9">
  <diagram name="Page-1" id="YFTvHTUv5r-kdM8ZqDkN">
    <mxGraphModel dx="1114" dy="999" grid="1" gridSize="10" guides="1" tooltips="1" connect="1" arrows="1" fold="1" page="1" pageScale="1" pageWidth="1169" pageHeight="827" math="0" shadow="0">
      <root>
        <mxCell id="0" />
        <mxCell id="1" parent="0" />
        <mxCell id="s28xzg_07gKscRcHmxNj-18" value="" style="rounded=1;whiteSpace=wrap;html=1;fillColor=none;dashed=1;strokeColor=#999999;" parent="1" vertex="1">
          <mxGeometry x="30" y="244" width="530" height="360" as="geometry" />
        </mxCell>
        <mxCell id="s28xzg_07gKscRcHmxNj-33" value="" style="rounded=1;whiteSpace=wrap;html=1;fillColor=none;dashed=1;strokeColor=#999999;" parent="1" vertex="1">
          <mxGeometry x="610" y="244" width="530" height="360" as="geometry" />
        </mxCell>
        <mxCell id="s28xzg_07gKscRcHmxNj-5" value="Current &amp;amp; History Product Information" style="text;html=1;align=center;verticalAlign=middle;whiteSpace=wrap;rounded=0;fontSize=10;" parent="1" vertex="1">
          <mxGeometry x="315" y="290" width="210" height="30" as="geometry" />
        </mxCell>
        <mxCell id="s28xzg_07gKscRcHmxNj-1" value="crm_prd_info" style="swimlane;fontStyle=0;childLayout=stackLayout;horizontal=1;startSize=30;horizontalStack=0;resizeParent=1;resizeParentMax=0;resizeLast=0;collapsible=1;marginBottom=0;whiteSpace=wrap;html=1;rounded=1;swimlaneLine=1;shadow=0;glass=0;fillColor=#dae8fc;strokeColor=#6c8ebf;" parent="1" vertex="1">
          <mxGeometry x="350" y="320" width="140" height="80" as="geometry" />
        </mxCell>
        <mxCell id="s28xzg_07gKscRcHmxNj-2" value="prd_key" style="text;strokeColor=none;fillColor=none;align=left;verticalAlign=middle;spacingLeft=4;spacingRight=4;overflow=hidden;points=[[0,0.5],[1,0.5]];portConstraint=eastwest;rotatable=0;whiteSpace=wrap;html=1;" parent="s28xzg_07gKscRcHmxNj-1" vertex="1">
          <mxGeometry y="30" width="140" height="30" as="geometry" />
        </mxCell>
        <mxCell id="00T6vGCKeXHPjGofMezG-1" value="PRODUCT" style="text;html=1;strokeColor=#b85450;fillColor=#f8cecc;align=center;verticalAlign=middle;whiteSpace=wrap;overflow=hidden;fontSize=14;" vertex="1" parent="s28xzg_07gKscRcHmxNj-1">
          <mxGeometry y="60" width="140" height="20" as="geometry" />
        </mxCell>
        <mxCell id="s28xzg_07gKscRcHmxNj-6" value="crm_cust_info" style="swimlane;fontStyle=0;childLayout=stackLayout;horizontal=1;startSize=30;horizontalStack=0;resizeParent=1;resizeParentMax=0;resizeLast=0;collapsible=1;marginBottom=0;whiteSpace=wrap;html=1;rounded=1;swimlaneLine=1;shadow=0;glass=0;fillColor=#dae8fc;strokeColor=#6c8ebf;verticalAlign=middle;" parent="1" vertex="1">
          <mxGeometry x="350" y="430" width="140" height="100" as="geometry" />
        </mxCell>
        <mxCell id="s28xzg_07gKscRcHmxNj-7" value="cst_id" style="text;strokeColor=none;fillColor=none;align=left;verticalAlign=middle;spacingLeft=4;spacingRight=4;overflow=hidden;points=[[0,0.5],[1,0.5]];portConstraint=eastwest;rotatable=0;whiteSpace=wrap;html=1;flipH=1;flipV=1;" parent="s28xzg_07gKscRcHmxNj-6" vertex="1">
          <mxGeometry y="30" width="140" height="25" as="geometry" />
        </mxCell>
        <mxCell id="s28xzg_07gKscRcHmxNj-10" value="cst_key" style="text;strokeColor=none;fillColor=none;align=left;verticalAlign=middle;spacingLeft=4;spacingRight=4;overflow=hidden;points=[[0,0.5],[1,0.5]];portConstraint=eastwest;rotatable=0;whiteSpace=wrap;html=1;flipH=1;flipV=1;" parent="s28xzg_07gKscRcHmxNj-6" vertex="1">
          <mxGeometry y="55" width="140" height="25" as="geometry" />
        </mxCell>
        <mxCell id="00T6vGCKeXHPjGofMezG-4" value="CUSTOMER" style="text;html=1;strokeColor=#82b366;fillColor=#d5e8d4;align=center;verticalAlign=middle;whiteSpace=wrap;overflow=hidden;fontSize=14;" vertex="1" parent="s28xzg_07gKscRcHmxNj-6">
          <mxGeometry y="80" width="140" height="20" as="geometry" />
        </mxCell>
        <mxCell id="s28xzg_07gKscRcHmxNj-8" value="Customer Information" style="text;html=1;align=center;verticalAlign=middle;whiteSpace=wrap;rounded=0;fontSize=10;" parent="1" vertex="1">
          <mxGeometry x="315" y="400" width="210" height="30" as="geometry" />
        </mxCell>
        <mxCell id="s28xzg_07gKscRcHmxNj-11" value="crm_sales_details" style="swimlane;fontStyle=0;childLayout=stackLayout;horizontal=1;startSize=30;horizontalStack=0;resizeParent=1;resizeParentMax=0;resizeLast=0;collapsible=1;marginBottom=0;whiteSpace=wrap;html=1;rounded=1;swimlaneLine=1;shadow=0;glass=0;fillColor=#dae8fc;strokeColor=#6c8ebf;" parent="1" vertex="1">
          <mxGeometry x="105" y="384" width="140" height="100" as="geometry" />
        </mxCell>
        <mxCell id="s28xzg_07gKscRcHmxNj-12" value="prd_key" style="text;strokeColor=none;fillColor=none;align=left;verticalAlign=middle;spacingLeft=4;spacingRight=4;overflow=hidden;points=[[0,0.5],[1,0.5]];portConstraint=eastwest;rotatable=0;whiteSpace=wrap;html=1;" parent="s28xzg_07gKscRcHmxNj-11" vertex="1">
          <mxGeometry y="30" width="140" height="25" as="geometry" />
        </mxCell>
        <mxCell id="s28xzg_07gKscRcHmxNj-13" value="cst_id" style="text;strokeColor=none;fillColor=none;align=left;verticalAlign=middle;spacingLeft=4;spacingRight=4;overflow=hidden;points=[[0,0.5],[1,0.5]];portConstraint=eastwest;rotatable=0;whiteSpace=wrap;html=1;" parent="s28xzg_07gKscRcHmxNj-11" vertex="1">
          <mxGeometry y="55" width="140" height="25" as="geometry" />
        </mxCell>
        <mxCell id="00T6vGCKeXHPjGofMezG-15" value="SALES" style="text;html=1;strokeColor=#9673a6;fillColor=#e1d5e7;align=center;verticalAlign=middle;whiteSpace=wrap;overflow=hidden;fontSize=14;" vertex="1" parent="s28xzg_07gKscRcHmxNj-11">
          <mxGeometry y="80" width="140" height="20" as="geometry" />
        </mxCell>
        <mxCell id="s28xzg_07gKscRcHmxNj-14" value="Transactional Records about Sales &amp;amp; Orders" style="text;html=1;align=center;verticalAlign=middle;whiteSpace=wrap;rounded=0;fontSize=10;" parent="1" vertex="1">
          <mxGeometry x="70" y="354" width="210" height="30" as="geometry" />
        </mxCell>
        <mxCell id="s28xzg_07gKscRcHmxNj-15" style="edgeStyle=orthogonalEdgeStyle;rounded=0;orthogonalLoop=1;jettySize=auto;html=1;exitX=1;exitY=0.5;exitDx=0;exitDy=0;" parent="1" source="s28xzg_07gKscRcHmxNj-12" target="s28xzg_07gKscRcHmxNj-2" edge="1">
          <mxGeometry relative="1" as="geometry" />
        </mxCell>
        <mxCell id="s28xzg_07gKscRcHmxNj-17" style="edgeStyle=orthogonalEdgeStyle;rounded=0;orthogonalLoop=1;jettySize=auto;html=1;exitX=1;exitY=0.5;exitDx=0;exitDy=0;entryX=0.989;entryY=0.285;entryDx=0;entryDy=0;entryPerimeter=0;" parent="1" source="s28xzg_07gKscRcHmxNj-13" target="s28xzg_07gKscRcHmxNj-7" edge="1">
          <mxGeometry relative="1" as="geometry" />
        </mxCell>
        <mxCell id="s28xzg_07gKscRcHmxNj-19" value="CRM" style="text;html=1;align=center;verticalAlign=middle;whiteSpace=wrap;rounded=1;fillColor=#dae8fc;strokeColor=#6c8ebf;fontStyle=1;fontSize=16;" parent="1" vertex="1">
          <mxGeometry x="265" y="224" width="60" height="30" as="geometry" />
        </mxCell>
        <mxCell id="s28xzg_07gKscRcHmxNj-20" value="erp_px_cat_g1v2" style="swimlane;fontStyle=0;childLayout=stackLayout;horizontal=1;startSize=30;horizontalStack=0;resizeParent=1;resizeParentMax=0;resizeLast=0;collapsible=1;marginBottom=0;whiteSpace=wrap;html=1;rounded=1;swimlaneLine=1;shadow=0;glass=0;fillColor=#fff2cc;strokeColor=#d6b656;" parent="1" vertex="1">
          <mxGeometry x="805" y="299" width="140" height="75" as="geometry" />
        </mxCell>
        <mxCell id="s28xzg_07gKscRcHmxNj-21" value="id" style="text;strokeColor=none;fillColor=none;align=left;verticalAlign=middle;spacingLeft=4;spacingRight=4;overflow=hidden;points=[[0,0.5],[1,0.5]];portConstraint=eastwest;rotatable=0;whiteSpace=wrap;html=1;" parent="s28xzg_07gKscRcHmxNj-20" vertex="1">
          <mxGeometry y="30" width="140" height="25" as="geometry" />
        </mxCell>
        <mxCell id="00T6vGCKeXHPjGofMezG-3" value="PRODUCT" style="text;html=1;strokeColor=#b85450;fillColor=#f8cecc;align=center;verticalAlign=middle;whiteSpace=wrap;overflow=hidden;fontSize=14;" vertex="1" parent="s28xzg_07gKscRcHmxNj-20">
          <mxGeometry y="55" width="140" height="20" as="geometry" />
        </mxCell>
        <mxCell id="s28xzg_07gKscRcHmxNj-22" value="Product Categories" style="text;html=1;align=center;verticalAlign=middle;whiteSpace=wrap;rounded=0;fontSize=10;" parent="1" vertex="1">
          <mxGeometry x="770" y="269" width="210" height="30" as="geometry" />
        </mxCell>
        <mxCell id="s28xzg_07gKscRcHmxNj-23" value="erp_cust_az12" style="swimlane;fontStyle=0;childLayout=stackLayout;horizontal=1;startSize=30;horizontalStack=0;resizeParent=1;resizeParentMax=0;resizeLast=0;collapsible=1;marginBottom=0;whiteSpace=wrap;html=1;rounded=1;swimlaneLine=1;shadow=0;glass=0;fillColor=#fff2cc;strokeColor=#d6b656;verticalAlign=middle;" parent="1" vertex="1">
          <mxGeometry x="805" y="401" width="140" height="75" as="geometry" />
        </mxCell>
        <mxCell id="s28xzg_07gKscRcHmxNj-24" value="cid" style="text;strokeColor=none;fillColor=none;align=left;verticalAlign=middle;spacingLeft=4;spacingRight=4;overflow=hidden;points=[[0,0.5],[1,0.5]];portConstraint=eastwest;rotatable=0;whiteSpace=wrap;html=1;flipH=1;flipV=1;" parent="s28xzg_07gKscRcHmxNj-23" vertex="1">
          <mxGeometry y="30" width="140" height="25" as="geometry" />
        </mxCell>
        <mxCell id="00T6vGCKeXHPjGofMezG-5" value="CUSTOMER" style="text;html=1;strokeColor=#82b366;fillColor=#d5e8d4;align=center;verticalAlign=middle;whiteSpace=wrap;overflow=hidden;fontSize=14;" vertex="1" parent="s28xzg_07gKscRcHmxNj-23">
          <mxGeometry y="55" width="140" height="20" as="geometry" />
        </mxCell>
        <mxCell id="s28xzg_07gKscRcHmxNj-26" value="Extra Customer Information (Birthdate)" style="text;html=1;align=center;verticalAlign=middle;whiteSpace=wrap;rounded=0;fontSize=10;" parent="1" vertex="1">
          <mxGeometry x="770" y="371" width="210" height="30" as="geometry" />
        </mxCell>
        <mxCell id="s28xzg_07gKscRcHmxNj-27" value="erp_loc_a101" style="swimlane;fontStyle=0;childLayout=stackLayout;horizontal=1;startSize=30;horizontalStack=0;resizeParent=1;resizeParentMax=0;resizeLast=0;collapsible=1;marginBottom=0;whiteSpace=wrap;html=1;rounded=1;swimlaneLine=1;shadow=0;glass=0;fillColor=#fff2cc;strokeColor=#d6b656;" parent="1" vertex="1">
          <mxGeometry x="805" y="510" width="140" height="75" as="geometry" />
        </mxCell>
        <mxCell id="s28xzg_07gKscRcHmxNj-28" value="cid" style="text;strokeColor=none;fillColor=none;align=left;verticalAlign=middle;spacingLeft=4;spacingRight=4;overflow=hidden;points=[[0,0.5],[1,0.5]];portConstraint=eastwest;rotatable=0;whiteSpace=wrap;html=1;" parent="s28xzg_07gKscRcHmxNj-27" vertex="1">
          <mxGeometry y="30" width="140" height="25" as="geometry" />
        </mxCell>
        <mxCell id="00T6vGCKeXHPjGofMezG-14" value="CUSTOMER" style="text;html=1;strokeColor=#82b366;fillColor=#d5e8d4;align=center;verticalAlign=middle;whiteSpace=wrap;overflow=hidden;fontSize=14;" vertex="1" parent="s28xzg_07gKscRcHmxNj-27">
          <mxGeometry y="55" width="140" height="20" as="geometry" />
        </mxCell>
        <mxCell id="s28xzg_07gKscRcHmxNj-30" value="Location of Customers (Country)" style="text;html=1;align=center;verticalAlign=middle;whiteSpace=wrap;rounded=0;fontSize=10;" parent="1" vertex="1">
          <mxGeometry x="770" y="480" width="210" height="30" as="geometry" />
        </mxCell>
        <mxCell id="s28xzg_07gKscRcHmxNj-34" value="ERP" style="text;html=1;align=center;verticalAlign=middle;whiteSpace=wrap;rounded=1;fillColor=#fff2cc;strokeColor=#d6b656;fontStyle=1;fontSize=16;" parent="1" vertex="1">
          <mxGeometry x="845" y="224" width="60" height="30" as="geometry" />
        </mxCell>
        <mxCell id="s28xzg_07gKscRcHmxNj-37" style="edgeStyle=orthogonalEdgeStyle;rounded=0;orthogonalLoop=1;jettySize=auto;html=1;exitX=0;exitY=0.5;exitDx=0;exitDy=0;" parent="1" source="s28xzg_07gKscRcHmxNj-21" target="s28xzg_07gKscRcHmxNj-2" edge="1">
          <mxGeometry relative="1" as="geometry" />
        </mxCell>
        <mxCell id="s28xzg_07gKscRcHmxNj-38" style="edgeStyle=orthogonalEdgeStyle;rounded=0;orthogonalLoop=1;jettySize=auto;html=1;exitX=0;exitY=0.5;exitDx=0;exitDy=0;entryX=1;entryY=0.5;entryDx=0;entryDy=0;" parent="1" source="s28xzg_07gKscRcHmxNj-28" target="s28xzg_07gKscRcHmxNj-10" edge="1">
          <mxGeometry relative="1" as="geometry" />
        </mxCell>
        <mxCell id="s28xzg_07gKscRcHmxNj-39" style="edgeStyle=orthogonalEdgeStyle;rounded=0;orthogonalLoop=1;jettySize=auto;html=1;exitX=0;exitY=0.5;exitDx=0;exitDy=0;" parent="1" source="s28xzg_07gKscRcHmxNj-24" target="s28xzg_07gKscRcHmxNj-10" edge="1">
          <mxGeometry relative="1" as="geometry" />
        </mxCell>
      </root>
    </mxGraphModel>
  </diagram>
</mxfile>
